<?xml version="1.0" encoding="utf-8"?>
<?xml-stylesheet type="text/xsl" href="rss1.xsl"?>
<rss version="2.0" xmlns:atom="http://www.w3.org/2005/Atom" xmlns:content="http://purl.org/rss/1.0/modules/content/" xmlns:dc="http://purl.org/dc/elements/1.1/" xmlns:media="http://search.yahoo.com/mrss/">
<channel>
 <title>Getty</title>
 <link>http://www.gettyimg.com/</link>
 <atom:link href="http://www.gettyimg.com/" rel="self" type="application/rss+xml" />

 
                <item>
                <title><![CDATA[【Albums (lossy)】iTunes Plus - Jennifer Lopez - On The 6 (iTunes Plus M4A)]]></title>
                <link><![CDATA[https://sharemania.us/threads/jennifer-lopez-on-the-6-itunes-plus-m4a.243356/]]></link>
                <description><![CDATA[<article>
<blockquote class="messageText SelectQuoteContainer ugc baseHtml">
<div style="text-align: center"><img src="https://images2.imgbox.com/8d/51/WLWUjqgX_o.png" class="bbCodeImage LbImage" alt="[​IMG]" data-url="https://images2.imgbox.com/8d/51/WLWUjqgX_o.png" style=""> ​</div><ul>
<li><b>Genres: Pop (Pop Latino)</b></li>
<li><b>Published by:</b> <a href="https://sharemania.us/members/109650/" class="username" data-user="109650, @sebastianswif13">@sebastianswif13</a> </li>
<li><b>Released: 1 July, 1999</b></li>
<li>Bit Rate: 256 kbps</li>
<li><b>Purchase date: </b></li>
<li><b>Purchased by: Paulo</b></li>
<li>℗ 1999 Epic Records, a division of Sony Music Entertainment<br>
</li>
<li><b>Filename: ONT6.rar</b></li>
<li><b>Size: 139 MB (146.087.678 bytes)</b></li>
<li><b>Request by: <a href="https://sharemania.us/members/162634/" class="username" data-user="162634, @Gri De Lioncourt">@Gri De Lioncourt</a> </b></li>
</ul><b><div style="text-align: center"><b><span style="color: #ff0000">PASSWORD: sharemania.us</span></b>​</div></b><br>
<div style="text-align: center">​</div><b><div style="text-align: center"><b><b>Download Tracks:<br>
<b>
<div class="bbCodeBlock bbCodeVfcHH HiddenContent">
<div class="attribution type">Hidden Content:</div>
<blockquote>You must reply before you can see the hidden data contained here.</blockquote>
</div>
<div class="bbCodeBlock bbCodeVfcHH HiddenContent">
<div class="attribution type">Hidden Content:</div>
<blockquote>You must reply before you can see the hidden data contained here.</blockquote>
</div></b><br>
<br>
Download Singles:<br>
<div class="bbCodeBlock bbCodeVfcHH HiddenContent">
<div class="attribution type">Hidden Content:</div>
<blockquote>You must reply before you can see the hidden data contained here.</blockquote>
</div>
<div class="bbCodeBlock bbCodeVfcHH HiddenContent">
<div class="attribution type">Hidden Content:</div>
<blockquote>You must reply before you can see the hidden data contained here.</blockquote>
</div></b></b><br>
<br>
Singles List:<br>
01 Feelin' So Good (feat. Big Pun &amp; Fat Joe)<br>
01 If You Had My Love<br>
01 Let's Get Loud<br>
01 Waiting for Tonight<br>
<br>
<b><b><b><span style="color: #ff0000">The singles It's marked "iTunes Plus" because the track was purchased there! <br>
However, it was edited for a single cover</span></b></b></b><br>
<br>
<b><b><b><b>If any link is down, please inform me by means of the replys; Thank you - Sebastian Swift<br>
Please do not type random letters when making a reply<br>
<br>
You can place an order in my profile, if I have it in my personal collection I can post it!</b></b></b></b>​</div></b>
<div class="messageTextEndMarker">&nbsp;</div>
</blockquote>
</article>]]></description>
                <author><![CDATA[sebastianswif13]]></author>
                </item>

                
                <item>
                <title><![CDATA[【HD Live Performances】HDTV - Eli Young Band - Stagecoach 2015 1080i HDTV DD5.1 MPEG2]]></title>
                <link><![CDATA[https://sharemania.us/threads/eli-young-band-stagecoach-2015-1080i-hdtv-dd5-1-mpeg2.243353/]]></link>
                <description><![CDATA[<article>
<blockquote class="messageText SelectQuoteContainer ugc baseHtml">
<b>Thanks. <br>
This album is fire. </b>
<div class="messageTextEndMarker">&nbsp;</div>
</blockquote>
</article>]]></description>
                <author><![CDATA[itunesboy]]></author>
                </item>

                
                <item>
                <title><![CDATA[【YOUTUBE】WEB-RiP - Linkin Park - New Divide [YouTube Premium 2160p 4K]]]></title>
                <link><![CDATA[https://sharemania.us/threads/linkin-park-new-divide-youtube-premium-2160p-4k.243355/]]></link>
                <description><![CDATA[<article>
<blockquote class="messageText SelectQuoteContainer ugc baseHtml">
<img src="https://i.ibb.co/wsV1MwX/Stagecoach-2015-Eli-Young-Band-1080i-HDTV-DD5-1-MPEG-No-GRP-ts.png" class="bbCodeImage LbImage" alt="[​IMG]" data-url="https://i.ibb.co/wsV1MwX/Stagecoach-2015-Eli-Young-Band-1080i-HDTV-DD5-1-MPEG-No-GRP-ts.png" style=""><br>
<div class="ToggleTriggerAnchor bbCodeSpoilerContainer">
<button type="button" class="button bbCodeSpoilerButton ToggleTrigger Tooltip JsOnly" data-target="> .SpoilerTarget"><span>Spoiler: <span class="SpoilerTitle">MediaInfo</span></span></button>
<div class="SpoilerTarget bbCodeSpoilerText">
<div class="bbCodeBlock bbCodeCode">
<div class="type">Code:</div>
<pre>General
Format                                   : MPEG-TS
File size                                : 5.39 GiB
Duration                                 : 43 min 45 s
Overall bit rate mode                    : Variable
Overall bit rate                         : 17.6 Mb/s
Frame rate                               : 29.970 FPS

Video
ID                                       : 6081 (0x17C1)
Menu ID                                  : 1 (0x1)
Format                                   : MPEG Video
Format version                           : Version 2
Format profile                           : Main@High
Format settings                          : BVOP
Format settings, BVOP                    : Yes
Format settings, Matrix                  : Default
Format settings, GOP                     : Variable
Format settings, picture structure       : Frame
Codec ID                                 : 2
Duration                                 : 43 min 45 s
Bit rate mode                            : Variable
Bit rate                                 : 16.4 Mb/s
Maximum bit rate                         : 18.0 Mb/s
Width                                    : 1 920 pixels
Height                                   : 1 080 pixels
Display aspect ratio                     : 16:9
Frame rate                               : 29.970 (30000/1001) FPS
Color space                              : YUV
Chroma subsampling                       : 4:2:0
Bit depth                                : 8 bits
Scan type                                : Interlaced
Scan order                               : Top Field First
Compression mode                         : Lossy
Bits/(Pixel*Frame)                       : 0.263
Time code of first frame                 : 00:00:00;00
Time code source                         : Group of pictures header
Stream size                              : 5.00 GiB (93%)

Audio
ID                                       : 6082 (0x17C2)
Menu ID                                  : 1 (0x1)
Format                                   : AC-3
Format/Info                              : Audio Coding 3
Commercial name                          : Dolby Digital
Codec ID                                 : 129
Duration                                 : 43 min 45 s
Bit rate mode                            : Constant
Bit rate                                 : 384 kb/s
Channel(s)                               : 6 channels
Channel layout                           : L R C LFE Ls Rs
Sampling rate                            : 48.0 kHz
Frame rate                               : 31.250 FPS (1536 SPF)
Compression mode                         : Lossy
Delay relative to video                  : 26 ms
Stream size                              : 120 MiB (2%)
Language                                 : English
Service kind                             : Complete Main
Dialog Normalization                     : -25 dB
compr                                    : 5.46 dB
dynrng                                   : 5.46 dB
cmixlev                                  : -3.0 dB
surmixlev                                : -3 dB
dialnorm_Average                         : -25 dB
dialnorm_Minimum                         : -25 dB
dialnorm_Maximum                         : -25 dB

Text #1
ID                                       : 6081 (0x17C1)-CC1
Menu ID                                  : 1 (0x1)
Format                                   : EIA-608
Muxing mode                              : A/53 / DTVCC Transport
Muxing mode, more info                   : Muxed in Video #1
Duration                                 : 43 min 45 s
Bit rate mode                            : Constant
Stream size                              : 0.00 Byte (0%)
Type of the first event                  : RollUp

Text #2
ID                                       : 6081 (0x17C1)-1
Menu ID                                  : 1 (0x1)
Format                                   : EIA-708
Muxing mode                              : A/53 / DTVCC Transport
Muxing mode, more info                   : Muxed in Video #1
Duration                                 : 43 min 45 s
Bit rate mode                            : Constant
Stream size                              : 0.00 Byte (0%)
</pre>
</div></div>
</div>
<div class="bbCodeBlock bbCodeVfcHH HiddenContent">
<div class="attribution type">Hidden Content:</div>
<blockquote>You must reply before you can see the hidden data contained here.</blockquote>
</div>
<div class="messageTextEndMarker">&nbsp;</div>
</blockquote>
</article>]]></description>
                <author><![CDATA[Ron001]]></author>
                </item>

                
                <item>
                <title><![CDATA[【HD Live Performances】WEB-DL - One Direction Up All Night The Live Tour 2012 1080p AMZN WEB-DL DDP2.0 H.264-SiGLA]]></title>
                <link><![CDATA[https://sharemania.us/threads/one-direction-up-all-night-the-live-tour-2012-1080p-amzn-web-dl-ddp2-0-h-264-sigla.243354/]]></link>
                <description><![CDATA[<article>
<blockquote class="messageText SelectQuoteContainer ugc baseHtml">
<span style="font-size: 22px"><b>Linkin Park - New Divide [YouTube Premium 2160p 4K]</b></span><br>
<br>
<img src="https://imgur.com/a1SKZme.jpg" class="bbCodeImage LbImage" alt="[​IMG]" data-url="https://imgur.com/a1SKZme.jpg" style=""><br>
<br>
<div class="bbCodeBlock bbCodeCode">
<div class="type">Code:</div>
<pre>General
Format                         : WebM
Format version                 : Version 4
File size                      : 352 MiB
Duration                       : 4 min 28 s
Overall bit rate               : 11.0 Mb/s
Writing application            : Lavf61.2.100
Writing library                : Lavf61.2.100

Video
ID                             : 1
Format                         : VP9
Codec ID                       : V_VP9
Duration                       : 4 min 28 s
Width                          : 3 840 pixels
Height                         : 1 592 pixels
Display aspect ratio           : 2.40:1
Frame rate mode                : Constant
Frame rate                     : 23.976 (24000/1001) FPS
Color space                    : YUV
Language                       : English
Default                        : Yes
Forced                         : No
Color range                    : Limited
Color primaries                : BT.709
Transfer characteristics       : BT.709
Matrix coefficients            : BT.709

Audio
ID                             : 2
Format                         : Opus
Codec ID                       : A_OPUS
Duration                       : 4 min 28 s
Channel(s)                     : 2 channels
Channel layout                 : L R
Sampling rate                  : 48.0 kHz
Bit depth                      : 32 bits
Compression mode               : Lossy
Delay relative to video        : 7 ms
Language                       : English
Default                        : Yes
Forced                         : No
</pre>
</div>
<div class="bbCodeBlock bbCodeVfcHH HiddenContent">
<div class="attribution type">Hidden Content:</div>
<blockquote>You must reply before you can see the hidden data contained here.</blockquote>
</div>
<div class="messageTextEndMarker">&nbsp;</div>
</blockquote>
</article>]]></description>
                <author><![CDATA[-C.A.A]]></author>
                </item>

                
                <item>
                <title><![CDATA[【Requests】[REQ AUD] - Martina Mcbride - 'Emotion' (1999)]]></title>
                <link><![CDATA[https://sharemania.us/threads/martina-mcbride-emotion-1999.243357/]]></link>
                <description><![CDATA[<article>
<blockquote class="messageText SelectQuoteContainer ugc baseHtml">
<img src="https://i.ibb.co/XZD9bs5/One-Direction-Up-All-Night-The-Live-Tour-2012-1080p-AMZN-WEB-DL-DDP2-0-H-264-Si-GLA-mkv-thumbs.jpg" class="bbCodeImage LbImage" alt="[​IMG]" data-url="https://i.ibb.co/XZD9bs5/One-Direction-Up-All-Night-The-Live-Tour-2012-1080p-AMZN-WEB-DL-DDP2-0-H-264-Si-GLA-mkv-thumbs.jpg" style=""><br>
<br>
<div style="text-align: left">
<div class="bbCodeBlock bbCodeCode">
<div class="type">Code:</div>
<pre>General
Unique ID                                : 88850800714545240890015069631345627841 (0x42D80AB14CF48579DCB200536FE892C1)
Complete name                            : One.Direction.Up.All.Night.The.Live.Tour.2012.1080p.AMZN.WEB-DL.DDP2.0.H.264-SiGLA.mkv
Format                                   : Matroska
Format version                           : Version 4
File size                                : 4.75 GiB
Duration                                 : 1 h 11 min
Overall bit rate mode                    : Constant
Overall bit rate                         : 9 541 kb/s
Movie name                               : One.Direction.-.Up.All.Night.-.The.Live.Tour.2012.1080p.AMZN.WEB-DL.DDP2.0.H.264-SiGLA
Writing application                      : mkvmerge v62.0.0 ('SiGLA') 64-bit
Writing library                          : libebml v1.4.2 + libmatroska v1.6.4

Video
ID                                       : 1
Format                                   : AVC
Format/Info                              : Advanced Video Codec
Format profile                           : High@L4
Format settings                          : CABAC / 4 Ref Frames
Format settings, CABAC                   : Yes
Format settings, Reference frames        : 4 frames
Codec ID                                 : V_MPEG4/ISO/AVC
Duration                                 : 1 h 11 min
Bit rate mode                            : Constant
Bit rate                                 : 9 315 kb/s
Nominal bit rate                         : 10 000 kb/s
Width                                    : 1 920 pixels
Height                                   : 1 080 pixels
Display aspect ratio                     : 16:9
Frame rate mode                          : Constant
Frame rate                               : 25.000 FPS
Color space                              : YUV
Chroma subsampling                       : 4:2:0
Bit depth                                : 8 bits
Scan type                                : Progressive
Bits/(Pixel*Frame)                       : 0.180
Stream size                              : 4.63 GiB (98%)
Default                                  : Yes
Forced                                   : No
Color range                              : Limited
Color primaries                          : BT.709
Transfer characteristics                 : BT.709
Matrix coefficients                      : BT.709

Audio
ID                                       : 2
Format                                   : E-AC-3
Format/Info                              : Enhanced AC-3
Commercial name                          : Dolby Digital Plus
Codec ID                                 : A_EAC3
Duration                                 : 1 h 11 min
Bit rate mode                            : Constant
Bit rate                                 : 224 kb/s
Channel(s)                               : 2 channels
Channel layout                           : L R
Sampling rate                            : 48.0 kHz
Frame rate                               : 31.250 FPS (1536 SPF)
Compression mode                         : Lossy
Stream size                              : 114 MiB (2%)
Title                                    : English
Language                                 : English
Service kind                             : Complete Main
Default                                  : Yes
Forced                                   : No
</pre>
</div></div>
<div class="bbCodeBlock bbCodeVfcHH HiddenContent">
<div class="attribution type">Hidden Content:</div>
<blockquote>You must either reply or click 'Like' to see the hidden information contained here.</blockquote>
</div>
<div class="messageTextEndMarker">&nbsp;</div>
</blockquote>
</article>]]></description>
                <author><![CDATA[SQUIREBUFFY]]></author>
                </item>

                </channel></rss>